<svg width="8243" height="1710" viewBox="0 0 8243 1710" fill="none" xmlns="http://www.w3.org/2000/svg">
<path d="M2287.42 1159.29V923.938C2287.42 907.661 2278.96 899.198 2262.03 898.547H1920.23C1907.86 899.198 1897.12 904.732 1888.01 915.148C1878.89 924.914 1872.06 936.633 1867.5 950.305C1863.59 963.326 1861.64 976.672 1861.64 990.344C1861.64 1003.36 1863.59 1016.71 1867.5 1030.38C1872.06 1043.4 1878.89 1055.12 1888.01 1065.54C1897.12 1075.3 1907.86 1080.19 1920.23 1080.19H2170.23C2188.46 1080.19 2203.76 1086.7 2216.13 1099.72C2229.15 1112.09 2235.66 1127.39 2235.66 1145.62C2235.66 1163.85 2229.15 1179.15 2216.13 1191.52C2203.76 1204.54 2188.46 1211.05 2170.23 1211.05H1924.14C1878.57 1210.4 1840.81 1197.7 1810.86 1172.96C1781.56 1147.57 1760.4 1119.25 1747.38 1088C1735.01 1056.1 1728.83 1023.22 1728.83 989.367C1728.83 956.815 1735.34 924.914 1748.36 893.664C1761.38 861.763 1782.54 833.443 1811.83 808.703C1841.13 783.312 1884.43 769.641 1941.72 767.688H2351.87C2370.1 767.688 2385.73 773.872 2398.75 786.242C2411.77 797.961 2418.61 812.935 2419.26 831.164V1159.29C2419.26 1177.52 2412.42 1192.82 2398.75 1205.19C2385.73 1216.91 2370.1 1222.77 2351.87 1222.77C2312.81 1219.51 2291.33 1198.35 2287.42 1159.29ZM2639.53 1159.29C2606.33 1114.37 2573.12 1055.45 2539.92 982.531L2476.44 845.812C2473.19 838.651 2471.24 830.839 2470.58 822.375C2469.28 804.146 2474.82 788.521 2487.19 775.5C2499.56 762.479 2515.83 755.969 2536.01 755.969C2558.15 755.969 2574.43 760.526 2584.84 769.641C2595.91 778.104 2604.7 789.172 2611.21 802.844L2657.11 916.125C2668.83 942.818 2680.22 968.208 2691.29 992.297C2703.01 1015.73 2716.03 1037.22 2730.35 1056.75C2745.32 1076.28 2761.93 1086.7 2780.16 1088C2797.73 1086.7 2814.33 1076.28 2829.96 1056.75C2843.63 1037.22 2856 1015.73 2867.07 992.297C2878.79 968.208 2890.51 942.818 2902.23 916.125L2948.12 802.844C2954.63 789.172 2963.1 778.104 2973.51 769.641C2984.58 760.526 3001.18 755.969 3023.32 755.969C3043.5 755.969 3059.78 762.479 3072.15 775.5C3084.52 788.521 3090.05 804.146 3088.75 822.375C3088.1 830.839 3086.14 838.651 3082.89 845.812L3019.41 982.531C2986.21 1055.45 2953.01 1114.37 2919.8 1159.29C2887.9 1203.56 2841.35 1226.02 2780.16 1226.67C2718.31 1226.02 2671.43 1203.56 2639.53 1159.29ZM3344.18 753.039C3366.97 753.039 3389.1 756.945 3410.58 764.758C3432.72 772.57 3453.88 783.964 3474.06 798.938C3477.32 802.193 3480.9 805.448 3484.8 808.703C3488.06 805.448 3491.64 802.193 3495.55 798.938C3515.73 783.964 3536.56 772.57 3558.05 764.758C3580.18 756.945 3602.32 753.039 3624.45 753.039C3647.24 753.039 3669.37 756.945 3690.86 764.758C3712.99 772.57 3733.83 784.289 3753.36 799.914C3773.54 814.888 3791.12 835.07 3806.09 860.461C3821.72 885.852 3829.53 916.125 3829.53 951.281V1159.29C3825.62 1198.35 3804.14 1219.51 3765.08 1222.77C3746.85 1222.77 3730.9 1216.91 3717.23 1205.19C3704.2 1192.82 3697.69 1177.52 3697.69 1159.29V959.094C3697.69 943.469 3694.76 930.448 3688.91 920.031C3683.05 908.964 3676.54 900.5 3669.37 894.641C3662.21 888.13 3654.73 883.573 3646.91 880.969C3639.1 877.714 3631.29 876.086 3623.48 876.086C3615.66 876.086 3607.85 877.714 3600.04 880.969C3592.88 883.573 3585.72 888.13 3578.55 894.641C3571.39 900.5 3564.88 908.964 3559.02 920.031C3553.16 930.448 3549.91 943.469 3549.26 959.094V1159.29C3545.35 1198.35 3523.87 1219.51 3484.8 1222.77C3466.57 1222.77 3450.62 1216.91 3436.95 1205.19C3423.93 1192.82 3417.42 1177.52 3417.42 1159.29V959.094C3417.42 943.469 3414.49 930.448 3408.63 920.031C3402.77 908.964 3396.26 900.5 3389.1 894.641C3381.94 888.13 3374.45 883.573 3366.64 880.969C3358.83 877.714 3351.01 876.086 3343.2 876.086C3335.39 876.086 3327.58 877.714 3319.76 880.969C3312.6 883.573 3305.44 888.13 3298.28 894.641C3291.12 900.5 3284.61 908.964 3278.75 920.031C3272.89 930.448 3269.63 943.469 3268.98 959.094V1159.29C3265.73 1198.35 3244.57 1219.51 3205.51 1222.77C3187.28 1222.77 3171.33 1216.91 3157.66 1205.19C3144.63 1192.82 3138.12 1177.52 3138.12 1159.29V951.281C3139.43 916.125 3147.56 885.852 3162.54 860.461C3177.51 835.07 3195.09 814.888 3215.27 799.914C3235.45 784.289 3256.29 772.57 3277.77 764.758C3299.91 756.945 3322.04 753.039 3344.18 753.039ZM4436.52 1159.29V923.938C4436.52 907.661 4428.06 899.198 4411.13 898.547H4069.33C4056.97 899.198 4046.22 904.732 4037.11 915.148C4027.99 924.914 4021.16 936.633 4016.6 950.305C4012.69 963.326 4010.74 976.672 4010.74 990.344C4010.74 1003.36 4012.69 1016.71 4016.6 1030.38C4021.16 1043.4 4027.99 1055.12 4037.11 1065.54C4046.22 1075.3 4056.97 1080.19 4069.33 1080.19H4319.33C4337.56 1080.19 4352.86 1086.7 4365.23 1099.72C4378.25 1112.09 4384.76 1127.39 4384.76 1145.62C4384.76 1163.85 4378.25 1179.15 4365.23 1191.52C4352.86 1204.54 4337.56 1211.05 4319.33 1211.05H4073.24C4027.67 1210.4 3989.91 1197.7 3959.96 1172.96C3930.66 1147.57 3909.5 1119.25 3896.48 1088C3884.11 1056.1 3877.93 1023.22 3877.93 989.367C3877.93 956.815 3884.44 924.914 3897.46 893.664C3910.48 861.763 3931.64 833.443 3960.94 808.703C3990.23 783.312 4033.53 769.641 4090.82 767.688H4500.98C4519.2 767.688 4534.83 773.872 4547.85 786.242C4560.87 797.961 4567.71 812.935 4568.36 831.164V1159.29C4568.36 1177.52 4561.52 1192.82 4547.85 1205.19C4534.83 1216.91 4519.2 1222.77 4500.98 1222.77C4461.91 1219.51 4440.43 1198.35 4436.52 1159.29Z" fill="#32353F"/>
<path d="M5203.81 933C5193.81 933 5188.81 938 5188.81 948V1168C5188.81 1178 5193.81 1183 5203.81 1183H5283.81C5293.81 1183 5298.81 1188 5298.81 1198C5298.81 1208 5293.81 1213 5283.81 1213H5073.81C5063.81 1213 5058.81 1208 5058.81 1198C5058.81 1188 5063.81 1183 5073.81 1183H5143.81C5153.81 1183 5158.81 1178 5158.81 1168V558C5158.81 548 5153.81 543 5143.81 543H5073.81C5063.81 543 5058.81 538 5058.81 528C5058.81 518 5063.81 513 5073.81 513H5408.81C5474.81 513 5524.48 531 5557.81 567C5591.81 602.333 5608.81 654.333 5608.81 723C5608.81 791.667 5591.81 844 5557.81 880C5524.48 915.333 5474.81 933 5408.81 933H5203.81ZM5408.81 903C5522.14 903 5578.81 843 5578.81 723C5578.81 603 5522.14 543 5408.81 543H5203.81C5193.81 543 5188.81 548 5188.81 558V888C5188.81 898 5193.81 903 5203.81 903H5408.81ZM5612.79 1213C5602.79 1213 5597.79 1208 5597.79 1198C5597.79 1188 5602.79 1183 5612.79 1183H5682.79C5692.79 1183 5697.79 1178 5697.79 1168V558C5697.79 548 5692.79 543 5682.79 543H5612.79C5602.79 543 5597.79 538 5597.79 528C5597.79 518 5602.79 513 5612.79 513H5712.79C5722.79 513 5727.79 518 5727.79 528V1168C5727.79 1178 5732.79 1183 5742.79 1183H5812.79C5822.79 1183 5827.79 1188 5827.79 1198C5827.79 1208 5822.79 1213 5812.79 1213H5612.79ZM6207.37 968C6207.37 958 6202.37 953 6192.37 953H6027.37C5969.37 953 5926.37 964.333 5898.37 987C5871.03 1009.67 5857.37 1038.67 5857.37 1074C5857.37 1108.67 5870.03 1137.33 5895.37 1160C5921.37 1182 5960.37 1193 6012.37 1193C6077.03 1193 6134.03 1160.33 6183.37 1095C6192.03 1083.67 6200.03 1071.33 6207.37 1058V968ZM6051.37 703C6107.37 703 6152.37 719 6186.37 751C6220.37 782.333 6237.37 821.333 6237.37 868V1168C6237.37 1178 6242.37 1183 6252.37 1183H6322.37C6332.37 1183 6337.37 1188 6337.37 1198C6337.37 1208 6332.37 1213 6322.37 1213H6222.37C6212.37 1213 6207.37 1208 6207.37 1198V1142C6207.37 1135.33 6206.03 1130.67 6203.37 1128C6200.7 1125.33 6196.7 1126.67 6191.37 1132C6173.37 1154.67 6148.37 1175.67 6116.37 1195C6084.37 1213.67 6051.03 1223 6016.37 1223C5954.37 1223 5907.37 1209.33 5875.37 1182C5843.37 1154 5827.37 1118 5827.37 1074C5827.37 1030 5845.7 994 5882.37 966C5919.03 937.333 5967.37 923 6027.37 923H6192.37C6202.37 923 6207.37 918 6207.37 908V868C6207.37 829.333 6192.7 797.333 6163.37 772C6134.03 746 6098.03 733 6055.37 733C6012.7 733 5977.7 739 5950.37 751C5923.03 762.333 5903.7 772.333 5892.37 781C5881.7 789.667 5873.37 790 5867.37 782C5862.03 774 5863.03 767.333 5870.37 762C5918.37 722.667 5978.7 703 6051.37 703ZM6546.01 1374C6529.34 1392.67 6513.01 1405.33 6497.01 1412C6481.67 1419.33 6464.67 1423 6446.01 1423C6414.67 1423 6388.34 1417 6367.01 1405C6345.67 1393.67 6329.34 1380.67 6318.01 1366C6310.01 1358 6309.34 1350.33 6316.01 1343C6322.67 1336.33 6329.67 1336.33 6337.01 1343C6348.34 1354.33 6362.34 1365.33 6379.01 1376C6396.34 1387.33 6419.01 1393 6447.01 1393C6475.67 1393 6500.01 1381.33 6520.01 1358C6540.01 1335.33 6559.67 1298.67 6579.01 1248L6589.01 1222C6591.67 1213.33 6591.67 1205.33 6589.01 1198L6382.01 758C6376.67 748 6370.01 743 6362.01 743H6297.01C6287.01 743 6282.01 738 6282.01 728C6282.01 718 6287.01 713 6297.01 713H6487.01C6497.01 713 6502.01 718 6502.01 728C6502.01 738 6497.01 743 6487.01 743H6425.01C6413.01 743 6409.67 748 6415.01 758L6604.01 1153C6607.34 1162.33 6611.01 1162.33 6615.01 1153L6768.01 758C6772.67 748 6769.34 743 6758.01 743H6696.01C6686.01 743 6681.01 738 6681.01 728C6681.01 718 6686.01 713 6696.01 713H6886.01C6896.01 713 6901.01 718 6901.01 728C6901.01 738 6896.01 743 6886.01 743H6821.01C6812.34 743 6805.67 748 6801.01 758L6611.01 1248C6585.01 1313.33 6563.34 1355.33 6546.01 1374ZM7269.55 1143C7280.21 1135 7288.21 1128.33 7293.55 1123C7299.55 1117.67 7304.21 1116 7307.55 1118C7310.88 1119.33 7314.88 1123 7319.55 1129C7324.88 1134.33 7323.55 1140.33 7315.55 1147C7291.55 1167.67 7263.88 1185.67 7232.55 1201C7201.21 1215.67 7161.21 1223 7112.55 1223C7041.88 1223 6984.88 1198.67 6941.55 1150C6898.88 1101.33 6877.55 1039 6877.55 963C6877.55 887 6898.88 824.667 6941.55 776C6984.88 727.333 7041.21 703 7110.55 703C7180.55 703 7237.55 725 7281.55 769C7325.55 813 7347.55 866 7347.55 928V943C7347.55 963 7337.55 973 7317.55 973H6923.55C6912.21 973 6907.21 978 6908.55 988C6912.55 1046 6932.21 1094.67 6967.55 1134C7003.55 1173.33 7052.55 1193 7114.55 1193C7177.21 1193 7228.88 1176.33 7269.55 1143ZM6909.55 931C6909.55 939 6914.21 943 6923.55 943H7302.55C7312.55 943 7317.55 938 7317.55 928C7317.55 874.667 7297.88 829 7258.55 791C7219.88 752.333 7170.55 733 7110.55 733C7051.21 733 7002.88 754 6965.55 796C6928.21 838 6909.55 883 6909.55 931ZM7748.93 733C7664.93 733 7594.93 766 7538.93 832C7522.93 850.667 7509.6 869.333 7498.93 888V1168C7498.93 1178 7503.93 1183 7513.93 1183H7593.93C7603.93 1183 7608.93 1188 7608.93 1198C7608.93 1208 7603.93 1213 7593.93 1213H7383.93C7373.93 1213 7368.93 1208 7368.93 1198C7368.93 1188 7373.93 1183 7383.93 1183H7453.93C7463.93 1183 7468.93 1178 7468.93 1168V758C7468.93 748 7463.93 743 7453.93 743H7383.93C7373.93 743 7368.93 738 7368.93 728C7368.93 718 7373.93 713 7383.93 713H7483.93C7493.93 713 7498.93 718 7498.93 728V807C7498.93 823.667 7505.93 824 7519.93 808C7544.6 780 7576.6 755.667 7615.93 735C7655.93 713.667 7700.26 703 7748.93 703H7797.93C7807.93 703 7812.93 708 7812.93 718V843C7812.93 853 7807.93 858 7797.93 858C7787.93 858 7782.93 853 7782.93 843V748C7782.93 738 7777.93 733 7767.93 733H7748.93Z" fill="#FFC93C"/>
<path d="M1233.9 1133.21C1235.22 1135.67 1236.46 1138.18 1237.61 1140.75C1271.51 1216.27 1219.23 1313.29 1120.84 1357.44C1022.46 1401.6 915.222 1376.17 881.326 1300.65C847.431 1225.13 899.71 1128.11 998.095 1083.95C1059.62 1056.34 1124.61 1055.94 1172.95 1077.98V678.254L581.954 838.633V1310.31C583.253 1312.73 584.473 1315.21 585.61 1317.75C619.506 1393.27 567.226 1490.29 468.842 1534.44C370.457 1578.6 263.223 1553.17 229.327 1477.65C195.432 1402.13 247.711 1305.11 346.096 1260.95C407.621 1233.34 472.607 1232.94 520.954 1254.98V648H526.652L525.954 645.592L1183.71 454.838L1232.5 440.5L1233.9 1133.21ZM1377.95 392C1377.95 437.84 1415.11 475 1460.95 475C1415.11 475 1377.95 512.16 1377.95 558C1377.95 512.16 1340.79 475 1294.95 475C1340.79 475 1377.95 437.84 1377.95 392ZM1127.45 315C1127.45 344.547 1151.41 368.5 1180.95 368.5C1151.41 368.5 1127.45 392.453 1127.45 422C1127.45 392.453 1103.5 368.5 1073.95 368.5C1103.5 368.5 1127.45 344.547 1127.45 315ZM1257.95 154C1257.95 211.438 1304.52 258 1361.95 258C1304.52 258 1257.95 304.562 1257.95 362C1257.95 304.562 1211.39 258 1153.95 258C1211.39 258 1257.95 211.438 1257.95 154Z" fill="#FFC93C"/>
</svg>
